<?xml version="1.0" standalone="no"?>
<!DOCTYPE svg PUBLIC "-//W3C//DTD SVG 20010904//EN"
 "http://www.w3.org/TR/2001/REC-SVG-20010904/DTD/svg10.dtd">
<svg version="1.0" xmlns="http://www.w3.org/2000/svg"
 width="500.000000pt" height="500.000000pt" viewBox="0 0 500.000000 500.000000"
 preserveAspectRatio="xMidYMid meet">
<metadata>
Created by potrace 1.14, written by Peter Selinger 2001-2017
</metadata>
<g transform="translate(0.000000,500.000000) scale(0.100000,-0.100000)"
fill="#000000" stroke="none">
<path d="M0 2500 l0 -2500 2500 0 2500 0 0 2500 0 2500 -2500 0 -2500 0 0
-2500z m2465 690 c3 -5 11 -7 18 -4 15 5 107 -79 107 -98 0 -7 7 -26 16 -43
18 -33 21 -148 4 -153 -6 -2 -10 -9 -10 -16 0 -7 -15 -29 -34 -48 -46 -48 -52
-63 -61 -148 -3 -41 -10 -81 -15 -90 -4 -8 -10 -55 -13 -105 -4 -49 -11 -155
-18 -235 -21 -277 -24 -412 -12 -520 16 -144 17 -152 31 -177 17 -32 0 -73
-28 -66 -11 3 -23 10 -27 16 -8 13 -32 135 -44 227 -11 89 -9 327 4 353 5 10
10 89 12 175 4 195 14 303 29 322 14 17 14 27 2 87 -5 30 -12 40 -24 39 -25
-4 -43 -49 -59 -150 -8 -50 -18 -118 -23 -151 -5 -33 -10 -105 -10 -160 -1
-55 -7 -172 -14 -260 -7 -88 -10 -169 -6 -180 16 -40 41 -166 35 -175 -9 -14
16 -102 37 -129 10 -13 18 -32 18 -42 0 -48 -33 -68 -45 -26 -4 12 -19 39 -33
61 -17 24 -29 60 -34 95 -4 31 -14 85 -23 121 -10 42 -16 110 -16 193 -1 112
-3 128 -19 137 -11 6 -24 36 -35 77 -10 37 -24 77 -31 89 -9 16 -12 62 -9 175
5 189 4 181 22 254 10 41 13 82 8 128 -6 73 5 127 34 161 12 14 13 20 4 23 -7
3 -13 9 -13 14 0 6 4 8 9 5 5 -3 17 7 27 22 9 15 23 32 31 37 7 6 21 26 32 45
10 19 30 41 44 48 14 7 29 21 32 31 3 11 22 26 43 35 45 18 49 19 57 6z m1382
-332 c-3 -24 -4 -37 -1 -30 3 6 13 12 22 12 14 0 14 -2 3 -9 -17 -11 -5 -51
15 -51 17 0 19 17 2 23 -7 2 -1 6 13 9 22 4 25 2 21 -17 -3 -18 1 -23 22 -24
49 -3 55 -4 50 -13 -3 -5 -10 -5 -16 -2 -8 5 -9 1 -5 -11 4 -9 2 -24 -4 -31
-13 -15 -9 -17 15 -8 9 3 16 14 16 23 1 13 2 13 11 -3 9 -14 8 -20 -2 -27 -23
-14 -2 -21 23 -8 21 11 22 11 9 -4 -17 -22 2 -22 23 -1 15 14 16 14 16 -4 0
-11 -6 -22 -12 -25 -7 -2 -10 -7 -6 -11 3 -4 15 -1 27 6 19 11 24 10 46 -15
23 -23 24 -27 8 -28 -17 -1 -17 -2 0 -6 9 -2 18 -14 18 -26 2 -22 2 -22 6 1
11 57 32 -10 24 -75 -1 -7 3 -13 9 -13 5 0 11 17 11 38 1 20 3 28 6 17 3 -11
15 -28 26 -37 20 -16 20 -18 4 -18 -10 0 -15 -5 -12 -10 4 -6 15 -8 26 -5 29
9 23 -14 -6 -25 -38 -14 -30 -18 18 -9 25 4 46 4 52 -2 7 -7 4 -8 -6 -4 -13 5
-18 -2 -21 -32 -3 -21 -1 -39 3 -41 4 -2 5 -10 2 -18 -5 -15 13 -44 28 -44 5
0 9 8 9 18 1 15 2 15 12 -2 6 -11 11 -33 10 -50 -1 -33 15 -59 29 -50 5 3 9
-11 9 -31 0 -38 18 -65 44 -65 18 0 19 -4 10 -48 -4 -17 -14 -32 -24 -35 -13
-3 -16 -11 -13 -30 5 -24 6 -24 24 -9 10 9 19 22 19 29 0 17 20 17 21 1 1 -7
1 -39 1 -70 0 -50 3 -58 19 -58 14 0 19 7 19 30 0 17 5 30 10 30 6 0 10 -22
10 -50 0 -51 -6 -60 -28 -38 -27 27 -11 -19 18 -50 21 -24 30 -43 30 -68 0
-25 4 -34 18 -35 16 -1 16 -2 0 -6 -20 -5 -24 -28 -8 -38 10 -6 -11 -35 -24
-35 -3 0 -7 37 -7 83 l-2 82 -9 -80 c-6 -54 -5 -81 2 -83 5 -2 10 -34 10 -72
0 -85 19 -106 22 -23 0 32 1 65 0 75 -1 9 5 18 12 21 11 4 14 -5 14 -39 0 -26
-4 -44 -11 -44 -6 0 -1 -7 12 -16 17 -13 20 -19 10 -25 -9 -5 -12 -33 -10
-105 3 -94 2 -97 -18 -91 -12 3 -24 1 -27 -4 -3 -5 -1 -9 5 -9 6 0 10 -16 9
-35 -1 -19 -6 -35 -11 -35 -5 0 -4 -7 3 -15 10 -12 10 -19 2 -27 -8 -8 -9 -15
-1 -25 9 -10 7 -13 -10 -13 -12 0 -21 -6 -21 -15 0 -8 -9 -15 -20 -15 -11 0
-20 -7 -20 -15 0 -8 4 -15 9 -15 5 0 6 -20 3 -45 -3 -30 -1 -45 7 -45 6 0 11
16 11 35 0 19 5 35 10 35 6 0 10 -15 10 -34 0 -19 5 -38 11 -42 8 -4 9 1 4 15
-4 13 -1 36 5 52 13 31 30 39 30 14 0 -8 -4 -15 -10 -15 -5 0 -10 -14 -10 -30
0 -17 -7 -47 -15 -67 -13 -30 -17 -33 -30 -23 -10 9 -15 9 -15 1 0 -6 -6 -11
-14 -11 -18 0 -29 -17 -21 -30 5 -8 11 -7 21 1 17 14 29 6 17 -13 -10 -16 -35
-17 -48 0 -5 6 -71 27 -145 46 -74 19 -179 52 -232 74 -53 22 -120 45 -148 51
-46 10 -319 99 -329 108 -3 2 3 20 13 41 13 26 21 77 26 169 5 76 17 163 29
205 23 86 29 128 36 265 7 128 20 201 42 226 22 23 22 136 1 217 -8 31 -11 66
-7 80 9 34 9 172 0 240 -6 39 -4 66 5 94 17 47 18 59 3 50 -8 -4 -8 0 0 15 12
22 31 29 31 10 0 -5 -4 -7 -10 -4 -5 3 -10 1 -10 -4 0 -14 1 -14 38 5 34 16
47 59 15 47 -12 -5 -11 -1 5 15 12 12 22 29 22 37 0 8 3 15 6 15 4 0 4 -19 1
-42z m-1187 -8 c0 -5 -7 -10 -16 -10 -8 0 -12 5 -9 10 3 6 10 10 16 10 5 0 9
-4 9 -10z m1260 -10 c0 -5 -8 -10 -17 -10 -15 0 -16 2 -3 10 19 12 20 12 20 0z
m-100 -30 c0 -5 -4 -10 -10 -10 -5 0 -10 5 -10 10 0 6 5 10 10 10 6 0 10 -4
10 -10z m-985 -29 c-15 -14 -85 -31 -85 -21 0 5 19 13 43 18 23 6 44 10 47 11
2 1 0 -3 -5 -8z m825 -12 c0 -5 -4 -9 -10 -9 -5 0 -10 7 -10 16 0 8 5 12 10 9
6 -3 10 -10 10 -16z m-1020 -39 c0 -5 -2 -10 -4 -10 -3 0 -8 5 -11 10 -3 6 -1
10 4 10 6 0 11 -4 11 -10z m60 6 c0 -6 -70 -46 -80 -46 -20 0 37 48 58 49 12
1 22 -1 22 -3z m-590 -338 c0 -19 -2 -20 -10 -8 -13 19 -13 30 0 30 6 0 10
-10 10 -22z m2250 -43 c0 -8 -4 -15 -10 -15 -5 0 -10 7 -10 15 0 8 5 15 10 15
6 0 10 -7 10 -15z m40 -85 c0 -5 -2 -10 -4 -10 -3 0 -8 5 -11 10 -3 6 -1 10 4
10 6 0 11 -4 11 -10z m-2993 -316 c-3 -3 -12 -4 -19 -1 -8 3 -5 6 6 6 11 1 17
-2 13 -5z m63 -38 c0 -3 -4 -8 -10 -11 -5 -3 -10 -1 -10 4 0 6 5 11 10 11 6 0
10 -2 10 -4z m6 -40 c6 -15 11 -40 14 -66 1 -8 6 -4 10 10 6 18 8 20 9 7 1
-10 6 -15 11 -12 6 3 10 -3 10 -15 0 -26 46 -75 53 -57 3 7 6 3 6 -8 1 -12 7
-27 14 -34 10 -11 9 -12 -3 -6 -12 6 -13 5 -2 -6 19 -20 15 -27 -28 -49 -21
-11 -50 -36 -63 -55 -13 -19 -27 -32 -32 -27 -5 4 -5 1 -1 -5 12 -21 -3 -34
-25 -23 -23 13 -25 7 -3 -14 8 -9 11 -16 6 -16 -6 0 -8 -10 -4 -22 3 -14 2
-19 -6 -14 -8 5 -12 -1 -12 -16 0 -13 -12 -43 -25 -67 -14 -24 -23 -46 -20
-49 3 -3 5 1 5 8 0 7 3 11 6 8 3 -4 -3 -21 -12 -40 -10 -18 -18 -36 -19 -40
-1 -18 -15 -19 -15 0 0 11 6 22 13 25 8 3 6 10 -8 21 -16 13 -17 15 -2 10 14
-5 17 0 17 24 0 17 -3 33 -8 36 -4 2 -7 20 -6 40 1 20 -2 39 -7 42 -5 3 -9 -1
-10 -8 0 -7 -5 -2 -10 11 -10 26 5 55 26 47 7 -2 18 0 26 5 11 7 11 9 -3 9
-25 0 -22 19 5 31 19 8 17 9 -10 5 -18 -3 -33 -1 -33 4 0 6 14 10 30 10 34 0
42 20 8 21 l-23 0 22 9 c19 8 22 14 16 42 -8 45 -13 48 -13 9 0 -27 -3 -32
-17 -27 -9 4 -20 1 -25 -6 -12 -18 0 41 14 70 6 12 17 22 24 22 8 0 10 12 7
42 -4 29 -3 39 5 34 8 -5 12 2 12 18 0 28 9 33 28 14 16 -16 28 -2 12 17 -7 8
-10 22 -6 30 7 19 35 20 42 1z m-149 -148 c-3 -8 -6 -5 -6 6 -1 11 2 17 5 13
3 -3 4 -12 1 -19z m3289 -55 c-10 -10 -19 5 -10 18 6 11 8 11 12 0 2 -7 1 -15
-2 -18z m14 -60 c0 -16 -5 -35 -10 -43 -7 -11 -10 -4 -10 28 0 23 5 42 10 42
6 0 10 -12 10 -27z m-3117 -181 c7 -116 43 -227 101 -314 20 -32 97 -116 169
-188 101 -100 132 -138 133 -158 3 -67 3 -152 -1 -212 -2 -37 1 -70 7 -77 8
-10 7 -13 -4 -13 -7 0 -18 -15 -23 -32 -6 -18 -17 -33 -25 -33 -8 0 -21 -6
-28 -12 -7 -7 -20 -17 -29 -22 -9 -5 -17 -19 -18 -32 -2 -14 -8 -23 -15 -21
-11 3 -11 0 0 -12 11 -14 8 -16 -20 -16 -24 0 -31 -4 -27 -14 3 -8 9 -32 13
-53 4 -21 12 -44 18 -52 9 -11 7 -13 -13 -6 -16 5 -21 4 -17 -4 15 -24 -8 -9
-40 26 -36 41 -111 164 -224 368 -40 72 -81 139 -91 151 -11 11 -19 32 -19 47
0 37 -31 97 -49 97 -35 0 -89 -21 -107 -41 -10 -12 -38 -30 -61 -40 -24 -10
-43 -25 -43 -33 0 -20 -32 -36 -78 -40 -20 -2 -70 -7 -110 -11 -64 -7 -72 -6
-66 8 9 25 -14 57 -41 57 -14 0 -25 4 -25 10 0 12 88 37 160 45 67 7 93 20 70
35 -8 5 -25 10 -37 10 -39 0 -25 20 31 46 45 21 70 25 160 26 l107 1 -27 28
c-15 16 -38 29 -50 29 -74 0 1 49 88 58 44 4 47 6 66 51 21 47 70 199 117 354
14 48 29 87 34 87 4 0 11 -44 14 -98z m-153 -62 c0 -5 -4 -10 -10 -10 -5 0
-10 5 -10 10 0 6 5 10 10 10 6 0 10 -4 10 -10z m900 -50 c0 -5 -2 -10 -4 -10
-3 0 -8 5 -11 10 -3 6 -1 10 4 10 6 0 11 -4 11 -10z m2357 -32 c-3 -7 -5 -2
-5 12 0 14 2 19 5 13 2 -7 2 -19 0 -25z m-16 -48 c6 0 7 -5 3 -11 -11 -18 -24
12 -22 51 l1 35 4 -37 c2 -21 9 -38 14 -38z m-3265 -32 c-11 -15 -16 -18 -16
-7 0 16 21 42 28 34 2 -2 -3 -14 -12 -27z m3269 -38 c3 -5 1 -10 -4 -10 -6 0
-11 5 -11 10 0 6 2 10 4 10 3 0 8 -4 11 -10z m-3285 -42 c0 -5 -7 -3 -15 6 -8
8 -15 18 -15 22 0 3 7 1 15 -6 8 -7 15 -17 15 -22z m-75 -63 c-27 -8 -51 -12
-53 -10 -6 5 58 23 83 23 11 0 -2 -6 -30 -13z m-65 -19 c0 -2 -7 -7 -16 -10
-8 -3 -12 -2 -9 4 6 10 25 14 25 6z m-396 -377 c-8 -14 -41 -11 -47 4 -4 10 3
12 24 9 16 -2 26 -8 23 -13z m1859 -59 c-26 -36 -53 -52 -53 -31 0 9 66 71 76
71 3 0 -7 -18 -23 -40z m-444 -208 c-8 -10 -29 -40 -48 -65 -19 -26 -37 -45
-39 -42 -6 6 20 45 59 90 33 37 51 48 28 17z"/>
<path d="M2257 2673 c-11 -39 -36 -151 -47 -205 -15 -75 -16 -229 -1 -255 6
-12 11 -33 11 -47 0 -24 23 -56 40 -56 4 0 8 79 8 175 0 96 3 179 6 184 9 13
17 182 10 203 -7 23 -21 23 -27 1z"/>
<path d="M4071 2624 c-18 -21 -6 -30 14 -11 8 9 15 18 15 21 0 11 -15 5 -29
-10z"/>
<path d="M4190 2459 c0 -5 5 -7 10 -4 6 3 10 8 10 11 0 2 -4 4 -10 4 -5 0 -10
-5 -10 -11z"/>
<path d="M4248 2353 c7 -3 16 -2 19 1 4 3 -2 6 -13 5 -11 0 -14 -3 -6 -6z"/>
<path d="M4321 2264 c0 -11 3 -14 6 -6 3 7 2 16 -1 19 -3 4 -6 -2 -5 -13z"/>
<path d="M4376 2125 c7 -51 13 -59 30 -44 12 10 11 14 -5 28 -10 9 -21 25 -24
36 -4 11 -4 2 -1 -20z"/>
<path d="M4450 1920 c0 -5 5 -10 10 -10 6 0 10 5 10 10 0 6 -4 10 -10 10 -5 0
-10 -4 -10 -10z"/>
<path d="M4470 989 c0 -5 4 -8 9 -4 5 3 12 1 16 -5 7 -12 25 -4 25 11 0 5 -11
9 -25 9 -14 0 -25 -5 -25 -11z"/>
<path d="M1462 1860 c0 -14 2 -19 5 -12 2 6 2 18 0 25 -3 6 -5 1 -5 -13z"/>
<path d="M1372 1435 c0 -22 2 -32 5 -22 3 11 11 16 19 13 8 -3 14 1 14 9 0 8
-6 15 -14 15 -8 0 -17 6 -19 13 -3 6 -5 -6 -5 -28z"/>
<path d="M1385 1389 c-4 -6 -5 -12 -2 -15 2 -3 7 2 10 11 7 17 1 20 -8 4z"/>
</g>
</svg>
